<svg width="94" height="94" fill="none" xmlns="http://www.w3.org/2000/svg"><mask id="a" style="mask-type:alpha" maskUnits="userSpaceOnUse" x="0" y="0" width="94" height="94"><path fill="#C4C4C4" d="M0 0h94v94H0z"/></mask><g mask="url(#a)"><path fill-rule="evenodd" clip-rule="evenodd" d="M74.774 11.681c-.685-1.093-2.065-1.742-3.62-1.701l-41.76 1.088c-1.556.04-3.05.764-3.92 1.898L2.116 43.417c-.634.827-.866 1.78-.68 2.66a3.42 3.42 0 0 0-.67 1.75l-.16 2.083a2.883 2.883 0 0 0 .435 1.767l19 30.317c.684 1.094 2.065 1.742 3.62 1.702l41.76-1.089c1.555-.04 3.049-.764 3.918-1.898l23.983-31.263c.509-.664.768-1.421.74-2.168l-.115-3.166a2.864 2.864 0 0 0-.34-1.257 2.881 2.881 0 0 0-.431-1.811L74.774 11.68Z" fill="url(#b)"/><path fill-rule="evenodd" clip-rule="evenodd" d="M74.774 11.681c-.685-1.093-2.065-1.742-3.62-1.701l-41.76 1.088c-1.556.04-3.05.764-3.92 1.898L2.116 43.417c-.634.827-.866 1.78-.68 2.66a3.42 3.42 0 0 0-.67 1.75l-.16 2.083a2.883 2.883 0 0 0 .435 1.767l19 30.317c.684 1.094 2.065 1.742 3.62 1.702l41.76-1.089c1.555-.04 3.049-.764 3.918-1.898l23.983-31.263c.509-.664.768-1.421.74-2.168l-.115-3.166a2.864 2.864 0 0 0-.34-1.257 2.881 2.881 0 0 0-.431-1.811L74.774 11.68Z" fill="#BD79F7" fill-opacity=".48"/><path fill-rule="evenodd" clip-rule="evenodd" d="M74.774 11.681c-.685-1.093-2.065-1.742-3.62-1.701l-41.76 1.088c-1.556.04-3.05.764-3.92 1.898L2.116 43.417c-.634.827-.866 1.78-.68 2.66a3.42 3.42 0 0 0-.67 1.75l-.16 2.083a2.883 2.883 0 0 0 .435 1.767l19 30.317c.684 1.094 2.065 1.742 3.62 1.702l41.76-1.089c1.555-.04 3.049-.764 3.918-1.898l23.983-31.263c.509-.664.768-1.421.74-2.168l-.115-3.166a2.864 2.864 0 0 0-.34-1.257 2.881 2.881 0 0 0-.431-1.811L74.774 11.68Z" fill="#4600AB" fill-opacity=".56"/><path d="m73.668 9.91 20.616 32.896-26.171 34.116-46.786 1.22L.71 45.244 26.882 11.13l46.786-1.22Z" fill="url(#c)"/><path d="m73.668 9.91 20.616 32.896-26.171 34.116-46.786 1.22L.71 45.244 26.882 11.13l46.786-1.22Z" fill="#BD79F7" fill-opacity=".48"/><g style="mix-blend-mode:screen"><path d="M66.611 15.9c1.555-.04 2.935.608 3.62 1.702l14.82 23.649c.686 1.093.572 2.465-.297 3.599L65.939 69.376c-.87 1.134-2.363 1.857-3.918 1.898l-33.634.876c-1.555.04-2.935-.608-3.62-1.701l-14.82-23.65c-.686-1.092-.572-2.465.298-3.598l18.814-24.526c.87-1.134 2.363-1.857 3.918-1.898l33.634-.877Z" fill="url(#d)"/><path d="M66.611 15.9c1.555-.04 2.935.608 3.62 1.702l14.82 23.649c.686 1.093.572 2.465-.297 3.599L65.939 69.376c-.87 1.134-2.363 1.857-3.918 1.898l-33.634.876c-1.555.04-2.935-.608-3.62-1.701l-14.82-23.65c-.686-1.092-.572-2.465.298-3.598l18.814-24.526c.87-1.134 2.363-1.857 3.918-1.898l33.634-.877Z" fill="#fff" fill-opacity=".64"/></g><path fill-rule="evenodd" clip-rule="evenodd" d="M41.463 69.268c13.76 0 28.26-10.18 31.91-24.18 4.18-16.07-7.49-29.02-25.25-26.85-16.36 2-28.91 16.03-29.12 29.82-.19 12.21 9.55 21.21 22.46 21.21Zm-.218-13.63a10.69 10.69 0 0 1-5.49.85 7.91 7.91 0 0 1-6.53-5.59 16.13 16.13 0 0 1 .12-9.81.48.48 0 0 1 .12-.17c.061-.04.129-.07.2-.09l2.48-.54a.2.2 0 0 1 .13 0 .28.28 0 0 1 .13 0 .34.34 0 0 1 .08.09.362.362 0 0 1 0 .11.06.06 0 0 0 0 .06v.07a14.21 14.21 0 0 0-.41 9.13 5.72 5.72 0 0 0 4.64 4.14 7.108 7.108 0 0 0 3.58-.48.33.33 0 0 1 .24 0 .28.28 0 0 1 .16.14c.234.569.501 1.123.8 1.66 0 .08-.02.16-.06.23a.721.721 0 0 1-.19.2Zm16.37-.83c-3.09 2.54-6.49 3.75-9.54 3.34a7.84 7.84 0 0 1-6.41-5.52 16.45 16.45 0 0 1 .39-10.66c1.26-3.58 4.46-6.08 7.2-5.69 2.74.39 3.93 3.51 2.66 7.07a22.45 22.45 0 0 1-5.42 8.55.391.391 0 0 1-.1.08.33.33 0 0 1-.13 0h-.13a.21.21 0 0 1-.1-.06v-.05l-.06-.11-.087-.185a8.298 8.298 0 0 1-.283-.645 9.746 9.746 0 0 1-.31-1.18.259.259 0 0 1 0-.15.34.34 0 0 1 .08-.14 20.489 20.489 0 0 0 3.85-6.53c.62-1.74.37-3.88-.87-4.05-1.24-.17-2.89 1.69-3.51 3.43a14.31 14.31 0 0 0-.47 9.08 5.64 5.64 0 0 0 4.57 4.11c2.12.29 4.59-.63 6.91-2.53a19.54 19.54 0 0 0 5.71-8.3 14.3 14.3 0 0 0 .56-9.1 6.79 6.79 0 0 0-1.05-2.08.36.36 0 0 1 0-.23.44.44 0 0 1 .14-.22.35.35 0 0 1 .16-.07l2.41-.59a.34.34 0 0 1 .2 0 .222.222 0 0 1 .12.13c.35.595.634 1.225.85 1.88a16.67 16.67 0 0 1-.61 10.68 22.89 22.89 0 0 1-6.73 9.74Z" fill="url(#e)"/><path fill-rule="evenodd" clip-rule="evenodd" d="M41.463 69.268c13.76 0 28.26-10.18 31.91-24.18 4.18-16.07-7.49-29.02-25.25-26.85-16.36 2-28.91 16.03-29.12 29.82-.19 12.21 9.55 21.21 22.46 21.21Zm-.218-13.63a10.69 10.69 0 0 1-5.49.85 7.91 7.91 0 0 1-6.53-5.59 16.13 16.13 0 0 1 .12-9.81.48.48 0 0 1 .12-.17c.061-.04.129-.07.2-.09l2.48-.54a.2.2 0 0 1 .13 0 .28.28 0 0 1 .13 0 .34.34 0 0 1 .08.09.362.362 0 0 1 0 .11.06.06 0 0 0 0 .06v.07a14.21 14.21 0 0 0-.41 9.13 5.72 5.72 0 0 0 4.64 4.14 7.108 7.108 0 0 0 3.58-.48.33.33 0 0 1 .24 0 .28.28 0 0 1 .16.14c.234.569.501 1.123.8 1.66 0 .08-.02.16-.06.23a.721.721 0 0 1-.19.2Zm16.37-.83c-3.09 2.54-6.49 3.75-9.54 3.34a7.84 7.84 0 0 1-6.41-5.52 16.45 16.45 0 0 1 .39-10.66c1.26-3.58 4.46-6.08 7.2-5.69 2.74.39 3.93 3.51 2.66 7.07a22.45 22.45 0 0 1-5.42 8.55.391.391 0 0 1-.1.08.33.33 0 0 1-.13 0h-.13a.21.21 0 0 1-.1-.06v-.05l-.06-.11-.087-.185a8.298 8.298 0 0 1-.283-.645 9.746 9.746 0 0 1-.31-1.18.259.259 0 0 1 0-.15.34.34 0 0 1 .08-.14 20.489 20.489 0 0 0 3.85-6.53c.62-1.74.37-3.88-.87-4.05-1.24-.17-2.89 1.69-3.51 3.43a14.31 14.31 0 0 0-.47 9.08 5.64 5.64 0 0 0 4.57 4.11c2.12.29 4.59-.63 6.91-2.53a19.54 19.54 0 0 0 5.71-8.3 14.3 14.3 0 0 0 .56-9.1 6.79 6.79 0 0 0-1.05-2.08.36.36 0 0 1 0-.23.44.44 0 0 1 .14-.22.35.35 0 0 1 .16-.07l2.41-.59a.34.34 0 0 1 .2 0 .222.222 0 0 1 .12.13c.35.595.634 1.225.85 1.88a16.67 16.67 0 0 1-.61 10.68 22.89 22.89 0 0 1-6.73 9.74Z" fill="#BD79F7" fill-opacity=".48"/></g><g style="mix-blend-mode:multiply" opacity=".32"><mask id="f" style="mask-type:alpha" maskUnits="userSpaceOnUse" x="0" y="0" width="94" height="94"><path fill="#C4C4C4" d="M0 0h94v94H0z"/></mask><g mask="url(#f)"><path fill-rule="evenodd" clip-rule="evenodd" d="M74.774 11.681c-.685-1.093-2.065-1.742-3.62-1.701l-41.76 1.088c-1.556.04-3.05.764-3.92 1.898L2.116 43.417c-.634.827-.866 1.78-.68 2.66a3.42 3.42 0 0 0-.67 1.75l-.16 2.083a2.883 2.883 0 0 0 .435 1.767l19 30.317c.684 1.094 2.065 1.742 3.62 1.702l41.76-1.089c1.555-.04 3.049-.764 3.918-1.898l23.983-31.263c.509-.664.768-1.421.74-2.168l-.115-3.166a2.864 2.864 0 0 0-.34-1.257 2.881 2.881 0 0 0-.431-1.811L74.774 11.68Z" fill="url(#g)"/><path fill-rule="evenodd" clip-rule="evenodd" d="M74.774 11.681c-.685-1.093-2.065-1.742-3.62-1.701l-41.76 1.088c-1.556.04-3.05.764-3.92 1.898L2.116 43.417c-.634.827-.866 1.78-.68 2.66a3.42 3.42 0 0 0-.67 1.75l-.16 2.083a2.883 2.883 0 0 0 .435 1.767l19 30.317c.684 1.094 2.065 1.742 3.62 1.702l41.76-1.089c1.555-.04 3.049-.764 3.918-1.898l23.983-31.263c.509-.664.768-1.421.74-2.168l-.115-3.166a2.864 2.864 0 0 0-.34-1.257 2.881 2.881 0 0 0-.431-1.811L74.774 11.68Z" fill="#BD79F7" fill-opacity=".48"/><path fill-rule="evenodd" clip-rule="evenodd" d="M74.774 11.681c-.685-1.093-2.065-1.742-3.62-1.701l-41.76 1.088c-1.556.04-3.05.764-3.92 1.898L2.116 43.417c-.634.827-.866 1.78-.68 2.66a3.42 3.42 0 0 0-.67 1.75l-.16 2.083a2.883 2.883 0 0 0 .435 1.767l19 30.317c.684 1.094 2.065 1.742 3.62 1.702l41.76-1.089c1.555-.04 3.049-.764 3.918-1.898l23.983-31.263c.509-.664.768-1.421.74-2.168l-.115-3.166a2.864 2.864 0 0 0-.34-1.257 2.881 2.881 0 0 0-.431-1.811L74.774 11.68Z" fill="#4600AB" fill-opacity=".56"/><path d="m73.668 9.91 20.616 32.896-26.171 34.116-46.786 1.22L.71 45.244 26.882 11.13l46.786-1.22Z" fill="url(#h)"/><path d="m73.668 9.91 20.616 32.896-26.171 34.116-46.786 1.22L.71 45.244 26.882 11.13l46.786-1.22Z" fill="#BD79F7" fill-opacity=".48"/><g style="mix-blend-mode:screen"><path d="M66.611 15.9c1.555-.04 2.935.608 3.62 1.702l14.82 23.649c.686 1.093.572 2.465-.297 3.599L65.939 69.376c-.87 1.134-2.363 1.857-3.918 1.898l-33.634.876c-1.555.04-2.935-.608-3.62-1.701l-14.82-23.65c-.686-1.092-.572-2.465.298-3.598l18.814-24.526c.87-1.134 2.363-1.857 3.918-1.898l33.634-.877Z" fill="url(#i)"/><path d="M66.611 15.9c1.555-.04 2.935.608 3.62 1.702l14.82 23.649c.686 1.093.572 2.465-.297 3.599L65.939 69.376c-.87 1.134-2.363 1.857-3.918 1.898l-33.634.876c-1.555.04-2.935-.608-3.62-1.701l-14.82-23.65c-.686-1.092-.572-2.465.298-3.598l18.814-24.526c.87-1.134 2.363-1.857 3.918-1.898l33.634-.877Z" fill="#fff" fill-opacity=".64"/></g><path fill-rule="evenodd" clip-rule="evenodd" d="M41.463 69.268c13.76 0 28.26-10.18 31.91-24.18 4.18-16.07-7.49-29.02-25.25-26.85-16.36 2-28.91 16.03-29.12 29.82-.19 12.21 9.55 21.21 22.46 21.21Zm-.218-13.63a10.69 10.69 0 0 1-5.49.85 7.91 7.91 0 0 1-6.53-5.59 16.13 16.13 0 0 1 .12-9.81.48.48 0 0 1 .12-.17c.061-.04.129-.07.2-.09l2.48-.54a.2.2 0 0 1 .13 0 .28.28 0 0 1 .13 0 .34.34 0 0 1 .08.09.362.362 0 0 1 0 .11.06.06 0 0 0 0 .06v.07a14.21 14.21 0 0 0-.41 9.13 5.72 5.72 0 0 0 4.64 4.14 7.108 7.108 0 0 0 3.58-.48.33.33 0 0 1 .24 0 .28.28 0 0 1 .16.14c.234.569.501 1.123.8 1.66 0 .08-.02.16-.06.23a.721.721 0 0 1-.19.2Zm16.37-.83c-3.09 2.54-6.49 3.75-9.54 3.34a7.84 7.84 0 0 1-6.41-5.52 16.45 16.45 0 0 1 .39-10.66c1.26-3.58 4.46-6.08 7.2-5.69 2.74.39 3.93 3.51 2.66 7.07a22.45 22.45 0 0 1-5.42 8.55.391.391 0 0 1-.1.08.33.33 0 0 1-.13 0h-.13a.21.21 0 0 1-.1-.06v-.05l-.06-.11-.087-.185a8.298 8.298 0 0 1-.283-.645 9.746 9.746 0 0 1-.31-1.18.259.259 0 0 1 0-.15.34.34 0 0 1 .08-.14 20.489 20.489 0 0 0 3.85-6.53c.62-1.74.37-3.88-.87-4.05-1.24-.17-2.89 1.69-3.51 3.43a14.31 14.31 0 0 0-.47 9.08 5.64 5.64 0 0 0 4.57 4.11c2.12.29 4.59-.63 6.91-2.53a19.54 19.54 0 0 0 5.71-8.3 14.3 14.3 0 0 0 .56-9.1 6.79 6.79 0 0 0-1.05-2.08.36.36 0 0 1 0-.23.44.44 0 0 1 .14-.22.35.35 0 0 1 .16-.07l2.41-.59a.34.34 0 0 1 .2 0 .222.222 0 0 1 .12.13c.35.595.634 1.225.85 1.88a16.67 16.67 0 0 1-.61 10.68 22.89 22.89 0 0 1-6.73 9.74Z" fill="url(#j)"/><path fill-rule="evenodd" clip-rule="evenodd" d="M41.463 69.268c13.76 0 28.26-10.18 31.91-24.18 4.18-16.07-7.49-29.02-25.25-26.85-16.36 2-28.91 16.03-29.12 29.82-.19 12.21 9.55 21.21 22.46 21.21Zm-.218-13.63a10.69 10.69 0 0 1-5.49.85 7.91 7.91 0 0 1-6.53-5.59 16.13 16.13 0 0 1 .12-9.81.48.48 0 0 1 .12-.17c.061-.04.129-.07.2-.09l2.48-.54a.2.2 0 0 1 .13 0 .28.28 0 0 1 .13 0 .34.34 0 0 1 .08.09.362.362 0 0 1 0 .11.06.06 0 0 0 0 .06v.07a14.21 14.21 0 0 0-.41 9.13 5.72 5.72 0 0 0 4.64 4.14 7.108 7.108 0 0 0 3.58-.48.33.33 0 0 1 .24 0 .28.28 0 0 1 .16.14c.234.569.501 1.123.8 1.66 0 .08-.02.16-.06.23a.721.721 0 0 1-.19.2Zm16.37-.83c-3.09 2.54-6.49 3.75-9.54 3.34a7.84 7.84 0 0 1-6.41-5.52 16.45 16.45 0 0 1 .39-10.66c1.26-3.58 4.46-6.08 7.2-5.69 2.74.39 3.93 3.51 2.66 7.07a22.45 22.45 0 0 1-5.42 8.55.391.391 0 0 1-.1.08.33.33 0 0 1-.13 0h-.13a.21.21 0 0 1-.1-.06v-.05l-.06-.11-.087-.185a8.298 8.298 0 0 1-.283-.645 9.746 9.746 0 0 1-.31-1.18.259.259 0 0 1 0-.15.34.34 0 0 1 .08-.14 20.489 20.489 0 0 0 3.85-6.53c.62-1.74.37-3.88-.87-4.05-1.24-.17-2.89 1.69-3.51 3.43a14.31 14.31 0 0 0-.47 9.08 5.64 5.64 0 0 0 4.57 4.11c2.12.29 4.59-.63 6.91-2.53a19.54 19.54 0 0 0 5.71-8.3 14.3 14.3 0 0 0 .56-9.1 6.79 6.79 0 0 0-1.05-2.08.36.36 0 0 1 0-.23.44.44 0 0 1 .14-.22.35.35 0 0 1 .16-.07l2.41-.59a.34.34 0 0 1 .2 0 .222.222 0 0 1 .12.13c.35.595.634 1.225.85 1.88a16.67 16.67 0 0 1-.61 10.68 22.89 22.89 0 0 1-6.73 9.74Z" fill="#BD79F7" fill-opacity=".48"/></g></g><defs><linearGradient id="b" x1="-3.498" y1="53.757" x2="76.215" y2="25.836" gradientUnits="userSpaceOnUse"><stop stop-color="#A566FF"/><stop offset=".313" stop-color="#CC85F2"/><stop offset=".47" stop-color="#FBAAE1"/><stop offset=".796" stop-color="#9543FE"/><stop offset="1" stop-color="#7810FC"/></linearGradient><linearGradient id="c" x1="-3.227" y1="35.989" x2="80.611" y2="54.469" gradientUnits="userSpaceOnUse"><stop stop-color="#A566FF"/><stop offset=".313" stop-color="#CC85F2"/><stop offset=".47" stop-color="#FBAAE1"/><stop offset=".796" stop-color="#9543FE"/><stop offset="1" stop-color="#7810FC"/></linearGradient><linearGradient id="d" x1="69.124" y1="15.835" x2="39.596" y2="78.665" gradientUnits="userSpaceOnUse"><stop stop-color="#924FE5"/><stop offset="1" stop-color="#B988FF"/></linearGradient><linearGradient id="e" x1="16.942" y1="52.361" x2="63.316" y2="30.668" gradientUnits="userSpaceOnUse"><stop stop-color="#A566FF"/><stop offset=".313" stop-color="#CC85F2"/><stop offset=".47" stop-color="#FBAAE1"/><stop offset=".796" stop-color="#9543FE"/><stop offset="1" stop-color="#7810FC"/></linearGradient><linearGradient id="g" x1="-3.498" y1="53.757" x2="76.215" y2="25.836" gradientUnits="userSpaceOnUse"><stop stop-color="#A566FF"/><stop offset=".313" stop-color="#CC85F2"/><stop offset=".47" stop-color="#FBAAE1"/><stop offset=".796" stop-color="#9543FE"/><stop offset="1" stop-color="#7810FC"/></linearGradient><linearGradient id="h" x1="-3.227" y1="35.989" x2="80.611" y2="54.469" gradientUnits="userSpaceOnUse"><stop stop-color="#A566FF"/><stop offset=".313" stop-color="#CC85F2"/><stop offset=".47" stop-color="#FBAAE1"/><stop offset=".796" stop-color="#9543FE"/><stop offset="1" stop-color="#7810FC"/></linearGradient><linearGradient id="i" x1="69.124" y1="15.835" x2="39.596" y2="78.665" gradientUnits="userSpaceOnUse"><stop stop-color="#924FE5"/><stop offset="1" stop-color="#B988FF"/></linearGradient><linearGradient id="j" x1="16.942" y1="52.361" x2="63.316" y2="30.668" gradientUnits="userSpaceOnUse"><stop stop-color="#A566FF"/><stop offset=".313" stop-color="#CC85F2"/><stop offset=".47" stop-color="#FBAAE1"/><stop offset=".796" stop-color="#9543FE"/><stop offset="1" stop-color="#7810FC"/></linearGradient></defs></svg>
